<?xml version="1.0" encoding="iso-8859-1"?>
<!-- Generator: Adobe Illustrator 19.0.0, SVG Export Plug-In . SVG Version: 6.00 Build 0)  -->
<!-- License: CC0. Made by SVG Repo: https://www.svgrepo.com/svg/109137/bronze-medal -->
<svg version="1.1" id="Layer_1" xmlns="http://www.w3.org/2000/svg" xmlns:xlink="http://www.w3.org/1999/xlink" x="0px" y="0px"
	 viewBox="0 0 502 502" style="enable-background:new 0 0 502 502;" xml:space="preserve">
<g>
	<path style="fill:#F7931E;" d="M274.561,204.721L251,222.928l-23.561-18.206C158.787,215.973,106.4,275.564,106.4,347.4
		c0,79.86,64.74,144.6,144.6,144.6s144.6-64.74,144.6-144.6C395.6,275.564,343.213,215.973,274.561,204.721z"/>
	<polygon style="fill:#998675;" points="297.611,186.91 297.611,131.824 204.389,131.824 204.389,186.91 251,222.928 	"/>
	<g>
		<path d="M167.312,136.527c2.564,0,5.128-0.98,7.082-2.939c3.899-3.911,3.89-10.242-0.021-14.142L57.505,2.919
			c-3.911-3.9-10.242-3.891-14.142,0.021c-3.899,3.911-3.89,10.242,0.021,14.142l116.867,116.527
			C162.203,135.555,164.757,136.527,167.312,136.527z"/>
		<path d="M408.127,38.946L307.611,139.462v-7.638c0-5.522-4.477-10-10-10h-93.222c-5.523,0-10,4.478-10,10v55.086
			c0,3.097,1.435,6.02,3.886,7.913l6.516,5.035c-27.465,8.611-52.233,24.844-71.207,46.975
			C109.606,274.799,96.4,310.515,96.4,347.401C96.4,432.647,165.753,502,251,502s154.6-69.354,154.6-154.6
			c0-36.886-13.206-72.602-37.184-100.567c-18.975-22.13-43.743-38.364-71.207-46.975l6.516-5.035
			c2.451-1.894,3.886-4.816,3.886-7.913v-19.163L422.269,53.089c3.905-3.905,3.905-10.237,0-14.143
			C418.364,35.042,412.032,35.042,408.127,38.946z M214.389,141.824h73.222V182L251,210.29L214.389,182V141.824z M385.6,347.401
			c0,74.219-60.381,134.6-134.6,134.6s-134.6-60.381-134.6-134.6c0-64.821,45.347-119.685,108.437-132.052l20.049,15.492
			c3.601,2.783,8.628,2.783,12.229,0l20.049-15.492C340.254,227.715,385.6,282.579,385.6,347.401z"/>
		<path d="M458.634,2.937c-3.9-3.908-10.232-3.916-14.142-0.016l-9.555,9.534c-3.909,3.901-3.917,10.232-0.015,14.143
			c1.953,1.957,4.516,2.937,7.079,2.937c2.556,0,5.111-0.974,7.063-2.921l9.555-9.534C462.528,13.178,462.535,6.847,458.634,2.937z"
			/>
		<path d="M195.64,420.094c-22.738-17.414-35.779-43.806-35.779-72.405c0-5.522-4.477-10-10-10s-10,4.478-10,10
			c0,34.875,15.898,67.054,43.618,88.284c1.814,1.389,3.952,2.062,6.073,2.062c3.005,0,5.978-1.35,7.946-3.921
			C200.857,429.73,200.024,423.452,195.64,420.094z"/>
		<path d="M153.452,319.064c1.229,0.497,2.498,0.732,3.746,0.732c3.955,0,7.7-2.362,9.274-6.253
			c3.971-9.818,9.591-18.812,16.704-26.728c3.691-4.108,3.353-10.432-0.756-14.122c-4.109-3.692-10.432-3.353-14.122,0.755
			c-8.669,9.65-15.522,20.617-20.367,32.595C145.86,311.163,148.332,316.992,153.452,319.064z"/>
		<path d="M214.27,324.731c0,5.522,4.477,10,10,10s10-4.478,10-10c0-9.226,7.505-16.73,16.73-16.73c9.225,0,16.73,7.505,16.73,16.73
			c0,9.123-7.349,16.27-16.73,16.27c-5.523,0-10,4.478-10,10s4.477,10,10,10c9.381,0,16.73,7.146,16.73,16.27
			c0,9.226-7.505,16.73-16.73,16.73c-9.225,0-16.73-7.505-16.73-16.73c0-5.522-4.477-10-10-10s-10,4.478-10,10
			c0,20.253,16.477,36.73,36.73,36.73s36.73-16.478,36.73-36.73c0-10.325-4.393-19.658-11.43-26.27
			c7.037-6.611,11.43-15.944,11.43-26.27c0-20.253-16.477-36.73-36.73-36.73S214.27,304.478,214.27,324.731z"/>
	</g>
</g>
</svg>
